<mxfile host="app.diagrams.net" agent="Mozilla/5.0 (Windows NT 10.0; Win64; x64) AppleWebKit/537.36 (KHTML, like Gecko) Chrome/130.0.0.0 Safari/537.36" version="24.8.6">
  <diagram name="Page-1" id="sSBlldbE5jm5_7Ya9Vpy">
    <mxGraphModel grid="1" page="1" gridSize="10" guides="1" tooltips="1" connect="1" arrows="1" fold="1" pageScale="1" pageWidth="1100" pageHeight="850" math="0" shadow="0">
      <root>
        <mxCell id="0" />
        <mxCell id="1" parent="0" />
        <mxCell id="Z4GplrjuYATjMZVvJX9h-1" value="&lt;h1 style=&quot;margin-top: 0px;&quot;&gt;Receiver Test Bench&lt;/h1&gt;&lt;div&gt;Note: any unconnected inputs are assigned to zero&lt;/div&gt;&lt;div&gt;of the appropriate width&lt;/div&gt;" style="text;html=1;whiteSpace=wrap;overflow=hidden;rounded=0;" vertex="1" parent="1">
          <mxGeometry x="410" width="280" height="80" as="geometry" />
        </mxCell>
        <mxCell id="Z4GplrjuYATjMZVvJX9h-2" value="" style="endArrow=none;html=1;rounded=0;" edge="1" parent="1">
          <mxGeometry width="50" height="50" relative="1" as="geometry">
            <mxPoint x="180" y="155" as="sourcePoint" />
            <mxPoint x="220" y="155" as="targetPoint" />
          </mxGeometry>
        </mxCell>
        <mxCell id="Z4GplrjuYATjMZVvJX9h-3" value="clock" style="text;html=1;align=center;verticalAlign=middle;whiteSpace=wrap;rounded=0;" vertex="1" parent="1">
          <mxGeometry x="220" y="140" width="30" height="30" as="geometry" />
        </mxCell>
        <mxCell id="Z4GplrjuYATjMZVvJX9h-4" value="" style="endArrow=none;html=1;rounded=0;" edge="1" parent="1">
          <mxGeometry width="50" height="50" relative="1" as="geometry">
            <mxPoint x="180" y="185" as="sourcePoint" />
            <mxPoint x="220" y="185" as="targetPoint" />
          </mxGeometry>
        </mxCell>
        <mxCell id="Z4GplrjuYATjMZVvJX9h-5" value="reset" style="text;html=1;align=center;verticalAlign=middle;whiteSpace=wrap;rounded=0;" vertex="1" parent="1">
          <mxGeometry x="220" y="170" width="30" height="30" as="geometry" />
        </mxCell>
        <mxCell id="Z4GplrjuYATjMZVvJX9h-6" value="" style="rounded=0;whiteSpace=wrap;html=1;" vertex="1" parent="1">
          <mxGeometry x="60" y="140" width="120" height="60" as="geometry" />
        </mxCell>
        <mxCell id="Z4GplrjuYATjMZVvJX9h-7" value="CLOCK_RESET" style="text;html=1;align=center;verticalAlign=middle;whiteSpace=wrap;rounded=0;" vertex="1" parent="1">
          <mxGeometry x="75" y="110" width="90" height="30" as="geometry" />
        </mxCell>
        <mxCell id="Z4GplrjuYATjMZVvJX9h-8" value="" style="rounded=0;whiteSpace=wrap;html=1;" vertex="1" parent="1">
          <mxGeometry x="470" y="220" width="160" height="200" as="geometry" />
        </mxCell>
        <mxCell id="Z4GplrjuYATjMZVvJX9h-9" value="TRANSCEIVER" style="text;html=1;align=center;verticalAlign=middle;whiteSpace=wrap;rounded=0;" vertex="1" parent="1">
          <mxGeometry x="505" y="200" width="90" height="20" as="geometry" />
        </mxCell>
        <mxCell id="Z4GplrjuYATjMZVvJX9h-10" value="TransceiverController" style="text;html=1;align=center;verticalAlign=middle;whiteSpace=wrap;rounded=0;" vertex="1" parent="1">
          <mxGeometry x="510" y="400" width="120" height="20" as="geometry" />
        </mxCell>
        <mxCell id="Z4GplrjuYATjMZVvJX9h-11" value="" style="endArrow=none;html=1;rounded=0;" edge="1" parent="1">
          <mxGeometry width="50" height="50" relative="1" as="geometry">
            <mxPoint x="430" y="386" as="sourcePoint" />
            <mxPoint x="470" y="386" as="targetPoint" />
          </mxGeometry>
        </mxCell>
        <mxCell id="Z4GplrjuYATjMZVvJX9h-12" value="clock" style="text;html=1;align=center;verticalAlign=middle;whiteSpace=wrap;rounded=0;" vertex="1" parent="1">
          <mxGeometry x="400" y="370" width="30" height="30" as="geometry" />
        </mxCell>
        <mxCell id="Z4GplrjuYATjMZVvJX9h-13" value="" style="endArrow=none;html=1;rounded=0;" edge="1" parent="1">
          <mxGeometry width="50" height="50" relative="1" as="geometry">
            <mxPoint x="430" y="406" as="sourcePoint" />
            <mxPoint x="470" y="406" as="targetPoint" />
          </mxGeometry>
        </mxCell>
        <mxCell id="Z4GplrjuYATjMZVvJX9h-14" value="reset" style="text;html=1;align=center;verticalAlign=middle;whiteSpace=wrap;rounded=0;" vertex="1" parent="1">
          <mxGeometry x="400" y="390" width="30" height="30" as="geometry" />
        </mxCell>
        <mxCell id="Z4GplrjuYATjMZVvJX9h-15" value="clock" style="text;html=1;align=center;verticalAlign=middle;whiteSpace=wrap;rounded=0;" vertex="1" parent="1">
          <mxGeometry x="460" y="370" width="60" height="30" as="geometry" />
        </mxCell>
        <mxCell id="Z4GplrjuYATjMZVvJX9h-16" value="reset" style="text;html=1;align=center;verticalAlign=middle;whiteSpace=wrap;rounded=0;" vertex="1" parent="1">
          <mxGeometry x="460" y="389" width="60" height="30" as="geometry" />
        </mxCell>
        <mxCell id="Z4GplrjuYATjMZVvJX9h-17" value="uartRx" style="text;html=1;align=center;verticalAlign=middle;whiteSpace=wrap;rounded=0;" vertex="1" parent="1">
          <mxGeometry x="470" y="220" width="40" height="20" as="geometry" />
        </mxCell>
        <mxCell id="Z4GplrjuYATjMZVvJX9h-18" value="vpeRx" style="text;html=1;align=center;verticalAlign=middle;whiteSpace=wrap;rounded=0;" vertex="1" parent="1">
          <mxGeometry x="470" y="240" width="40" height="20" as="geometry" />
        </mxCell>
        <mxCell id="Z4GplrjuYATjMZVvJX9h-19" value="sendToUartEn" style="text;html=1;align=center;verticalAlign=middle;whiteSpace=wrap;rounded=0;" vertex="1" parent="1">
          <mxGeometry x="470" y="260" width="80" height="20" as="geometry" />
        </mxCell>
        <mxCell id="Z4GplrjuYATjMZVvJX9h-20" value="sendToVpeEn" style="text;html=1;align=center;verticalAlign=middle;whiteSpace=wrap;rounded=0;" vertex="1" parent="1">
          <mxGeometry x="470" y="280" width="80" height="20" as="geometry" />
        </mxCell>
        <mxCell id="Z4GplrjuYATjMZVvJX9h-21" value="vpeTx" style="text;html=1;align=center;verticalAlign=middle;whiteSpace=wrap;rounded=0;" vertex="1" parent="1">
          <mxGeometry x="590" y="220" width="40" height="20" as="geometry" />
        </mxCell>
        <mxCell id="Z4GplrjuYATjMZVvJX9h-22" value="uartTx" style="text;html=1;align=center;verticalAlign=middle;whiteSpace=wrap;rounded=0;" vertex="1" parent="1">
          <mxGeometry x="590" y="240" width="40" height="20" as="geometry" />
        </mxCell>
        <mxCell id="Z4GplrjuYATjMZVvJX9h-23" value="sevenSegmentHexTx" style="text;html=1;align=center;verticalAlign=middle;whiteSpace=wrap;rounded=0;" vertex="1" parent="1">
          <mxGeometry x="510" y="340" width="120" height="10" as="geometry" />
        </mxCell>
        <mxCell id="Z4GplrjuYATjMZVvJX9h-24" value="sevenSegmentHexRx" style="text;html=1;align=center;verticalAlign=middle;whiteSpace=wrap;rounded=0;" vertex="1" parent="1">
          <mxGeometry x="510" y="360" width="120" height="10" as="geometry" />
        </mxCell>
        <mxCell id="Z4GplrjuYATjMZVvJX9h-25" value="" style="endArrow=none;html=1;rounded=0;" edge="1" parent="1">
          <mxGeometry width="50" height="50" relative="1" as="geometry">
            <mxPoint x="630" y="250" as="sourcePoint" />
            <mxPoint x="800" y="250" as="targetPoint" />
          </mxGeometry>
        </mxCell>
        <mxCell id="Z4GplrjuYATjMZVvJX9h-26" value="" style="endArrow=none;html=1;rounded=0;" edge="1" parent="1">
          <mxGeometry width="50" height="50" relative="1" as="geometry">
            <mxPoint x="944" y="282" as="sourcePoint" />
            <mxPoint x="954" y="262" as="targetPoint" />
          </mxGeometry>
        </mxCell>
        <mxCell id="Z4GplrjuYATjMZVvJX9h-27" value="8" style="text;html=1;align=center;verticalAlign=middle;whiteSpace=wrap;rounded=0;" vertex="1" parent="1">
          <mxGeometry x="940" y="259" width="10" height="10" as="geometry" />
        </mxCell>
        <mxCell id="Z4GplrjuYATjMZVvJX9h-28" value="" style="rounded=0;whiteSpace=wrap;html=1;" vertex="1" parent="1">
          <mxGeometry x="800" y="230" width="120" height="160" as="geometry" />
        </mxCell>
        <mxCell id="Z4GplrjuYATjMZVvJX9h-29" value="rxData" style="text;html=1;align=center;verticalAlign=middle;whiteSpace=wrap;rounded=0;" vertex="1" parent="1">
          <mxGeometry x="800" y="245" width="40" height="10" as="geometry" />
        </mxCell>
        <mxCell id="Z4GplrjuYATjMZVvJX9h-30" value="RECEIVER" style="text;html=1;align=center;verticalAlign=middle;whiteSpace=wrap;rounded=0;" vertex="1" parent="1">
          <mxGeometry x="822.5" y="210" width="75" height="20" as="geometry" />
        </mxCell>
        <mxCell id="Z4GplrjuYATjMZVvJX9h-31" value="UartRx" style="text;html=1;align=center;verticalAlign=middle;whiteSpace=wrap;rounded=0;" vertex="1" parent="1">
          <mxGeometry x="880" y="370" width="40" height="20" as="geometry" />
        </mxCell>
        <mxCell id="Z4GplrjuYATjMZVvJX9h-32" value="clock" style="text;html=1;align=center;verticalAlign=middle;whiteSpace=wrap;rounded=0;" vertex="1" parent="1">
          <mxGeometry x="800" y="355" width="40" height="10" as="geometry" />
        </mxCell>
        <mxCell id="Z4GplrjuYATjMZVvJX9h-33" value="reset" style="text;html=1;align=center;verticalAlign=middle;whiteSpace=wrap;rounded=0;" vertex="1" parent="1">
          <mxGeometry x="800" y="375" width="40" height="10" as="geometry" />
        </mxCell>
        <mxCell id="Z4GplrjuYATjMZVvJX9h-34" value="clock" style="text;html=1;align=center;verticalAlign=middle;whiteSpace=wrap;rounded=0;" vertex="1" parent="1">
          <mxGeometry x="710" y="350" width="50" height="20" as="geometry" />
        </mxCell>
        <mxCell id="Z4GplrjuYATjMZVvJX9h-35" value="" style="endArrow=none;html=1;rounded=0;entryX=0;entryY=0.5;entryDx=0;entryDy=0;" edge="1" parent="1">
          <mxGeometry width="50" height="50" relative="1" as="geometry">
            <mxPoint x="750" y="360" as="sourcePoint" />
            <mxPoint x="800" y="360" as="targetPoint" />
          </mxGeometry>
        </mxCell>
        <mxCell id="Z4GplrjuYATjMZVvJX9h-36" value="reset" style="text;html=1;align=center;verticalAlign=middle;whiteSpace=wrap;rounded=0;" vertex="1" parent="1">
          <mxGeometry x="710" y="370" width="50" height="20" as="geometry" />
        </mxCell>
        <mxCell id="Z4GplrjuYATjMZVvJX9h-37" value="" style="endArrow=none;html=1;rounded=0;entryX=0;entryY=0.5;entryDx=0;entryDy=0;" edge="1" parent="1">
          <mxGeometry width="50" height="50" relative="1" as="geometry">
            <mxPoint x="750" y="380" as="sourcePoint" />
            <mxPoint x="800" y="380" as="targetPoint" />
          </mxGeometry>
        </mxCell>
        <mxCell id="Z4GplrjuYATjMZVvJX9h-38" value="dataReady" style="text;html=1;align=center;verticalAlign=middle;whiteSpace=wrap;rounded=0;" vertex="1" parent="1">
          <mxGeometry x="860" y="245" width="60" height="10" as="geometry" />
        </mxCell>
        <mxCell id="Z4GplrjuYATjMZVvJX9h-39" value="dataOut" style="text;html=1;align=center;verticalAlign=middle;whiteSpace=wrap;rounded=0;" vertex="1" parent="1">
          <mxGeometry x="860" y="265" width="60" height="10" as="geometry" />
        </mxCell>
        <mxCell id="Z4GplrjuYATjMZVvJX9h-40" value="" style="endArrow=none;html=1;rounded=0;strokeWidth=3;" edge="1" parent="1">
          <mxGeometry width="50" height="50" relative="1" as="geometry">
            <mxPoint x="920" y="271" as="sourcePoint" />
            <mxPoint x="1040" y="271" as="targetPoint" />
          </mxGeometry>
        </mxCell>
        <mxCell id="Z4GplrjuYATjMZVvJX9h-41" value="" style="rounded=0;whiteSpace=wrap;html=1;" vertex="1" parent="1">
          <mxGeometry x="1040" y="234.5" width="120" height="241" as="geometry" />
        </mxCell>
        <mxCell id="Z4GplrjuYATjMZVvJX9h-42" value="REPORT_DATA" style="text;html=1;align=center;verticalAlign=middle;whiteSpace=wrap;rounded=0;" vertex="1" parent="1">
          <mxGeometry x="1055" y="214.5" width="90" height="20" as="geometry" />
        </mxCell>
        <mxCell id="Z4GplrjuYATjMZVvJX9h-43" value="" style="endArrow=none;html=1;rounded=0;" edge="1" parent="1">
          <mxGeometry width="50" height="50" relative="1" as="geometry">
            <mxPoint x="1000" y="431.16" as="sourcePoint" />
            <mxPoint x="1040" y="431.16" as="targetPoint" />
          </mxGeometry>
        </mxCell>
        <mxCell id="Z4GplrjuYATjMZVvJX9h-44" value="clock" style="text;html=1;align=center;verticalAlign=middle;whiteSpace=wrap;rounded=0;" vertex="1" parent="1">
          <mxGeometry x="970" y="415.5" width="30" height="30" as="geometry" />
        </mxCell>
        <mxCell id="Z4GplrjuYATjMZVvJX9h-45" value="" style="endArrow=none;html=1;rounded=0;" edge="1" parent="1">
          <mxGeometry width="50" height="50" relative="1" as="geometry">
            <mxPoint x="1000" y="461.5" as="sourcePoint" />
            <mxPoint x="1040" y="461.5" as="targetPoint" />
          </mxGeometry>
        </mxCell>
        <mxCell id="Z4GplrjuYATjMZVvJX9h-46" value="reset" style="text;html=1;align=center;verticalAlign=middle;whiteSpace=wrap;rounded=0;" vertex="1" parent="1">
          <mxGeometry x="970" y="445.5" width="30" height="30" as="geometry" />
        </mxCell>
        <mxCell id="Z4GplrjuYATjMZVvJX9h-47" value="" style="endArrow=none;html=1;rounded=0;" edge="1" parent="1">
          <mxGeometry width="50" height="50" relative="1" as="geometry">
            <mxPoint x="920" y="250" as="sourcePoint" />
            <mxPoint x="1040" y="250" as="targetPoint" />
          </mxGeometry>
        </mxCell>
        <mxCell id="Z4GplrjuYATjMZVvJX9h-48" value="" style="rounded=0;whiteSpace=wrap;html=1;" vertex="1" parent="1">
          <mxGeometry x="60" y="220" width="180" height="140" as="geometry" />
        </mxCell>
        <mxCell id="Z4GplrjuYATjMZVvJX9h-49" value="" style="endArrow=none;html=1;rounded=0;" edge="1" parent="1">
          <mxGeometry width="50" height="50" relative="1" as="geometry">
            <mxPoint x="240" y="251" as="sourcePoint" />
            <mxPoint x="470" y="250" as="targetPoint" />
          </mxGeometry>
        </mxCell>
        <mxCell id="Z4GplrjuYATjMZVvJX9h-50" value="t0Time" style="text;html=1;align=center;verticalAlign=middle;whiteSpace=wrap;rounded=0;" vertex="1" parent="1">
          <mxGeometry x="60" y="220" width="40" height="20" as="geometry" />
        </mxCell>
        <mxCell id="Z4GplrjuYATjMZVvJX9h-51" value="TimeBasedVpeTx" style="text;html=1;align=center;verticalAlign=middle;whiteSpace=wrap;rounded=0;" vertex="1" parent="1">
          <mxGeometry x="140" y="340" width="100" height="20" as="geometry" />
        </mxCell>
        <mxCell id="Z4GplrjuYATjMZVvJX9h-52" value="data" style="text;html=1;align=center;verticalAlign=middle;whiteSpace=wrap;rounded=0;" vertex="1" parent="1">
          <mxGeometry x="60" y="240" width="30" height="15" as="geometry" />
        </mxCell>
        <mxCell id="Z4GplrjuYATjMZVvJX9h-53" value="txMode" style="text;html=1;align=center;verticalAlign=middle;whiteSpace=wrap;rounded=0;" vertex="1" parent="1">
          <mxGeometry x="60" y="259" width="40" height="10" as="geometry" />
        </mxCell>
        <mxCell id="Z4GplrjuYATjMZVvJX9h-54" value="vpeSerial" style="text;html=1;align=center;verticalAlign=middle;whiteSpace=wrap;rounded=0;" vertex="1" parent="1">
          <mxGeometry x="180" y="240" width="60" height="20" as="geometry" />
        </mxCell>
        <mxCell id="Z4GplrjuYATjMZVvJX9h-55" value="wordEndEn" style="text;html=1;align=center;verticalAlign=middle;whiteSpace=wrap;rounded=0;" vertex="1" parent="1">
          <mxGeometry x="170" y="265" width="70" height="20" as="geometry" />
        </mxCell>
        <mxCell id="Z4GplrjuYATjMZVvJX9h-56" value="" style="rounded=0;whiteSpace=wrap;html=1;" vertex="1" parent="1">
          <mxGeometry x="60" y="440" width="180" height="159.5" as="geometry" />
        </mxCell>
        <mxCell id="Z4GplrjuYATjMZVvJX9h-57" value="DRIVE_RECEIVER" style="text;html=1;align=center;verticalAlign=middle;whiteSpace=wrap;rounded=0;" vertex="1" parent="1">
          <mxGeometry x="100" y="420" width="100" height="21" as="geometry" />
        </mxCell>
        <mxCell id="Z4GplrjuYATjMZVvJX9h-58" value="" style="endArrow=none;html=1;rounded=0;" edge="1" parent="1">
          <mxGeometry width="50" height="50" relative="1" as="geometry">
            <mxPoint x="59" y="460" as="sourcePoint" />
            <mxPoint x="240" y="276" as="targetPoint" />
            <Array as="points">
              <mxPoint x="40" y="460" />
              <mxPoint x="40" y="420" />
              <mxPoint x="250" y="420" />
              <mxPoint x="250" y="276" />
            </Array>
          </mxGeometry>
        </mxCell>
        <mxCell id="Z4GplrjuYATjMZVvJX9h-59" value="" style="endArrow=none;html=1;rounded=0;" edge="1" parent="1">
          <mxGeometry width="50" height="50" relative="1" as="geometry">
            <mxPoint x="20" y="565.5" as="sourcePoint" />
            <mxPoint x="60" y="565.5" as="targetPoint" />
          </mxGeometry>
        </mxCell>
        <mxCell id="Z4GplrjuYATjMZVvJX9h-60" value="clock" style="text;html=1;align=center;verticalAlign=middle;whiteSpace=wrap;rounded=0;" vertex="1" parent="1">
          <mxGeometry x="-10" y="549.5" width="30" height="30" as="geometry" />
        </mxCell>
        <mxCell id="Z4GplrjuYATjMZVvJX9h-61" value="" style="endArrow=none;html=1;rounded=0;" edge="1" parent="1">
          <mxGeometry width="50" height="50" relative="1" as="geometry">
            <mxPoint x="20" y="585.5" as="sourcePoint" />
            <mxPoint x="60" y="585.5" as="targetPoint" />
          </mxGeometry>
        </mxCell>
        <mxCell id="Z4GplrjuYATjMZVvJX9h-62" value="reset" style="text;html=1;align=center;verticalAlign=middle;whiteSpace=wrap;rounded=0;" vertex="1" parent="1">
          <mxGeometry x="-10" y="569.5" width="30" height="30" as="geometry" />
        </mxCell>
        <mxCell id="Z4GplrjuYATjMZVvJX9h-63" value="" style="endArrow=none;html=1;rounded=0;" edge="1" parent="1">
          <mxGeometry width="50" height="50" relative="1" as="geometry">
            <mxPoint x="240" y="579.5" as="sourcePoint" />
            <mxPoint x="470" y="270" as="targetPoint" />
            <Array as="points">
              <mxPoint x="390" y="580" />
              <mxPoint x="390" y="270" />
            </Array>
          </mxGeometry>
        </mxCell>
        <mxCell id="Z4GplrjuYATjMZVvJX9h-64" value="" style="endArrow=none;html=1;rounded=0;strokeWidth=3;" edge="1" parent="1">
          <mxGeometry width="50" height="50" relative="1" as="geometry">
            <mxPoint x="240" y="456" as="sourcePoint" />
            <mxPoint x="60" y="229" as="targetPoint" />
            <Array as="points">
              <mxPoint x="260" y="456" />
              <mxPoint x="260" y="410" />
              <mxPoint y="410" />
              <mxPoint y="229" />
            </Array>
          </mxGeometry>
        </mxCell>
        <mxCell id="Z4GplrjuYATjMZVvJX9h-65" value="" style="endArrow=none;html=1;rounded=0;strokeColor=default;strokeWidth=3;" edge="1" parent="1">
          <mxGeometry width="50" height="50" relative="1" as="geometry">
            <mxPoint x="240" y="480" as="sourcePoint" />
            <mxPoint x="60" y="248" as="targetPoint" />
            <Array as="points">
              <mxPoint x="270" y="480" />
              <mxPoint x="270" y="400" />
              <mxPoint x="10" y="400" />
              <mxPoint x="10" y="248" />
            </Array>
          </mxGeometry>
        </mxCell>
        <mxCell id="Z4GplrjuYATjMZVvJX9h-66" value="" style="endArrow=none;html=1;rounded=0;" edge="1" parent="1">
          <mxGeometry width="50" height="50" relative="1" as="geometry">
            <mxPoint x="147" y="408" as="sourcePoint" />
            <mxPoint x="157" y="388" as="targetPoint" />
          </mxGeometry>
        </mxCell>
        <mxCell id="Z4GplrjuYATjMZVvJX9h-67" value="8" style="text;html=1;align=center;verticalAlign=middle;whiteSpace=wrap;rounded=0;" vertex="1" parent="1">
          <mxGeometry x="143" y="385" width="10" height="10" as="geometry" />
        </mxCell>
        <mxCell id="Z4GplrjuYATjMZVvJX9h-68" value="" style="endArrow=none;html=1;rounded=0;" edge="1" parent="1">
          <mxGeometry width="50" height="50" relative="1" as="geometry">
            <mxPoint x="240" y="500" as="sourcePoint" />
            <mxPoint x="60" y="264" as="targetPoint" />
            <Array as="points">
              <mxPoint x="280" y="500" />
              <mxPoint x="280" y="380" />
              <mxPoint x="20" y="380" />
              <mxPoint x="20" y="264" />
            </Array>
          </mxGeometry>
        </mxCell>
      </root>
    </mxGraphModel>
  </diagram>
</mxfile>
